<?xml version="1.0" encoding="UTF-8"?>
<!-- Generated by Pixelmator Pro 3.3.6 -->
<svg width="900" height="215" viewBox="0 0 900 215" xmlns="http://www.w3.org/2000/svg">
    <path id="Path" fill="#f4623a" stroke="none" d="M 0 -385 L 900 -385 L 900 215 L 0 215 Z"/>
    <path id="path1" fill="#c34e2e" stroke="none" d="M 0 30 L 21.5 37.799988 C 43 45.700012 86 61.299988 128.800003 67 C 171.699997 72.700012 214.300003 68.299988 257.200012 70.799988 C 300 73.299988 343 82.700012 385.799988 82.700012 C 428.700012 82.700012 471.299988 73.299988 514.200012 65.5 C 557 57.700012 600 51.299988 642.799988 49.5 C 685.700012 47.700012 728.299988 50.299988 771.200012 54.5 C 814 58.700012 857 64.299988 878.5 67.200012 L 900 70 L 900 216 L 878.5 216 C 857 216 814 216 771.200012 216 C 728.299988 216 685.700012 216 642.799988 216 C 600 216 557 216 514.200012 216 C 471.299988 216 428.700012 216 385.799988 216 C 343 216 300 216 257.200012 216 C 214.300003 216 171.699997 216 128.800003 216 C 86 216 43 216 21.5 216 L 0 216 Z"/>
    <path id="path2" fill="#a33858" stroke="none" d="M 0 109 L 21.5 106.5 C 43 104 86 99 128.800003 93.5 C 171.699997 88 214.300003 82 257.200012 77.299988 C 300 72.700012 343 69.299988 385.799988 76.5 C 428.700012 83.700012 471.299988 101.299988 514.200012 102.5 C 557 103.700012 600 88.299988 642.799988 86.799988 C 685.700012 85.299988 728.299988 97.700012 771.200012 95.700012 C 814 93.700012 857 77.299988 878.5 69.200012 L 900 61 L 900 216 L 878.5 216 C 857 216 814 216 771.200012 216 C 728.299988 216 685.700012 216 642.799988 216 C 600 216 557 216 514.200012 216 C 471.299988 216 428.700012 216 385.799988 216 C 343 216 300 216 257.200012 216 C 214.300003 216 171.699997 216 128.800003 216 C 86 216 43 216 21.5 216 L 0 216 Z"/>
    <path id="path3" fill="#693964" stroke="none" d="M 0 140 L 21.5 136.200012 C 43 132.299988 86 124.700012 128.800003 119.299988 C 171.699997 114 214.300003 111 257.200012 114 C 300 117 343 126 385.799988 122.200012 C 428.700012 118.299988 471.299988 101.700012 514.200012 99.700012 C 557 97.700012 600 110.299988 642.799988 110.200012 C 685.700012 110 728.299988 97 771.200012 98.200012 C 814 99.299988 857 114.700012 878.5 122.299988 L 900 130 L 900 216 L 878.5 216 C 857 216 814 216 771.200012 216 C 728.299988 216 685.700012 216 642.799988 216 C 600 216 557 216 514.200012 216 C 471.299988 216 428.700012 216 385.799988 216 C 343 216 300 216 257.200012 216 C 214.300003 216 171.699997 216 128.800003 216 C 86 216 43 216 21.5 216 L 0 216 Z"/>
    <path id="path4" fill="#34344f" stroke="none" d="M 0 139 L 21.5 137.5 C 43 136 86 133 128.800003 130.799988 C 171.699997 128.700012 214.300003 127.299988 257.200012 129.299988 C 300 131.299988 343 136.700012 385.799988 142.299988 C 428.700012 148 471.299988 154 514.200012 156.799988 C 557 159.700012 600 159.299988 642.799988 154.299988 C 685.700012 149.299988 728.299988 139.700012 771.200012 140.200012 C 814 140.700012 857 151.299988 878.5 156.700012 L 900 162 L 900 216 L 878.5 216 C 857 216 814 216 771.200012 216 C 728.299988 216 685.700012 216 642.799988 216 C 600 216 557 216 514.200012 216 C 471.299988 216 428.700012 216 385.799988 216 C 343 216 300 216 257.200012 216 C 214.300003 216 171.699997 216 128.800003 216 C 86 216 43 216 21.5 216 L 0 216 Z"/>
    <path id="path5" fill="#212529" stroke="none" d="M 0 193 L 21.5 191 C 43 189 86 185 128.800003 179.799988 C 171.699997 174.700012 214.300003 168.299988 257.200012 166.799988 C 300 165.299988 343 168.700012 385.799988 171.200012 C 428.700012 173.700012 471.299988 175.299988 514.200012 176.5 C 557 177.700012 600 178.299988 642.799988 178 C 685.700012 177.700012 728.299988 176.299988 771.200012 177.5 C 814 178.700012 857 182.299988 878.5 184.200012 L 900 186 L 900 216 L 878.5 216 C 857 216 814 216 771.200012 216 C 728.299988 216 685.700012 216 642.799988 216 C 600 216 557 216 514.200012 216 C 471.299988 216 428.700012 216 385.799988 216 C 343 216 300 216 257.200012 216 C 214.300003 216 171.699997 216 128.800003 216 C 86 216 43 216 21.5 216 L 0 216 Z"/>
</svg>
