<?xml version="1.0" encoding="UTF-8"?>
<!-- Generated by Pixelmator Pro 3.3.6 -->
<svg width="900" height="215" viewBox="0 0 900 215" xmlns="http://www.w3.org/2000/svg">
    <path id="Path" fill="#212529" stroke="none" d="M 0 -385 L 900 -385 L 900 215 L 0 215 Z"/>
    <path id="path1" fill="#323a41" stroke="none" d="M 0 68 L 21.5 65.200012 C 43 62.299988 86 56.700012 128.800003 59.200012 C 171.699997 61.700012 214.300003 72.299988 257.200012 76 C 300 79.700012 343 76.299988 385.799988 71.299988 C 428.700012 66.299988 471.299988 59.700012 514.200012 53.700012 C 557 47.700012 600 42.299988 642.799988 38 C 685.700012 33.700012 728.299988 30.299988 771.200012 34.799988 C 814 39.299988 857 51.700012 878.5 57.799988 L 900 64 L 900 216 L 878.5 216 C 857 216 814 216 771.200012 216 C 728.299988 216 685.700012 216 642.799988 216 C 600 216 557 216 514.200012 216 C 471.299988 216 428.700012 216 385.799988 216 C 343 216 300 216 257.200012 216 C 214.300003 216 171.699997 216 128.800003 216 C 86 216 43 216 21.5 216 L 0 216 Z"/>
    <path id="path2" fill="#60666c" stroke="none" d="M 0 64 L 21.5 69.5 C 43 75 86 86 128.800003 84.299988 C 171.699997 82.700012 214.300003 68.299988 257.200012 62.5 C 300 56.700012 343 59.299988 385.799988 70.200012 C 428.700012 81 471.299988 100 514.200012 105.5 C 557 111 600 103 642.799988 95.299988 C 685.700012 87.700012 728.299988 80.299988 771.200012 74.200012 C 814 68 857 63 878.5 60.5 L 900 58 L 900 216 L 878.5 216 C 857 216 814 216 771.200012 216 C 728.299988 216 685.700012 216 642.799988 216 C 600 216 557 216 514.200012 216 C 471.299988 216 428.700012 216 385.799988 216 C 343 216 300 216 257.200012 216 C 214.300003 216 171.699997 216 128.800003 216 C 86 216 43 216 21.5 216 L 0 216 Z"/>
    <path id="path3" fill="#92969a" stroke="none" d="M 0 86 L 21.5 89.700012 C 43 93.299988 86 100.700012 128.800003 104.700012 C 171.699997 108.700012 214.300003 109.299988 257.200012 115 C 300 120.700012 343 131.299988 385.799988 135.200012 C 428.700012 139 471.299988 136 514.200012 134 C 557 132 600 131 642.799988 123.200012 C 685.700012 115.299988 728.299988 100.700012 771.200012 102.799988 C 814 105 857 124 878.5 133.5 L 900 143 L 900 216 L 878.5 216 C 857 216 814 216 771.200012 216 C 728.299988 216 685.700012 216 642.799988 216 C 600 216 557 216 514.200012 216 C 471.299988 216 428.700012 216 385.799988 216 C 343 216 300 216 257.200012 216 C 214.300003 216 171.699997 216 128.800003 216 C 86 216 43 216 21.5 216 L 0 216 Z"/>
    <path id="path4" fill="#c7c9cb" stroke="none" d="M 0 141 L 21.5 137.700012 C 43 134.299988 86 127.700012 128.800003 129.799988 C 171.699997 132 214.300003 143 257.200012 142.799988 C 300 142.700012 343 131.299988 385.799988 126.5 C 428.700012 121.700012 471.299988 123.299988 514.200012 123.700012 C 557 124 600 123 642.799988 129.799988 C 685.700012 136.700012 728.299988 151.299988 771.200012 155.799988 C 814 160.299988 857 154.700012 878.5 151.799988 L 900 149 L 900 216 L 878.5 216 C 857 216 814 216 771.200012 216 C 728.299988 216 685.700012 216 642.799988 216 C 600 216 557 216 514.200012 216 C 471.299988 216 428.700012 216 385.799988 216 C 343 216 300 216 257.200012 216 C 214.300003 216 171.699997 216 128.800003 216 C 86 216 43 216 21.5 216 L 0 216 Z"/>
    <path id="path5" fill="#ffffff" stroke="none" d="M 0 154 L 21.5 160.5 C 43 167 86 180 128.800003 182.700012 C 171.699997 185.299988 214.300003 177.700012 257.200012 177 C 300 176.299988 343 182.700012 385.799988 180.799988 C 428.700012 179 471.299988 169 514.200012 163.5 C 557 158 600 157 642.799988 158.5 C 685.700012 160 728.299988 164 771.200012 165 C 814 166 857 164 878.5 163 L 900 162 L 900 216 L 878.5 216 C 857 216 814 216 771.200012 216 C 728.299988 216 685.700012 216 642.799988 216 C 600 216 557 216 514.200012 216 C 471.299988 216 428.700012 216 385.799988 216 C 343 216 300 216 257.200012 216 C 214.300003 216 171.699997 216 128.800003 216 C 86 216 43 216 21.5 216 L 0 216 Z"/>
</svg>
